<svg xmlns="http://www.w3.org/2000/svg" viewBox="0 0 441.89 454.39"><defs><style>.cls-1{fill:#eaefef;}.cls-2{fill:#99a5ae;}.cls-10,.cls-3,.cls-6,.cls-7,.cls-9{fill:none;stroke-miterlimit:10;}.cls-3{stroke:#eaefef;stroke-width:4px;}.cls-4{fill:#55c1de;}.cls-5{fill:#435562;}.cls-6{stroke:#f0f;}.cls-7{stroke:red;}.cls-8{fill:#2da1d8;}.cls-9{stroke:blue;}.cls-10{stroke:#d4145a;}.cls-11{fill:#d9d9d9;}.cls-12{fill:#fff;}</style></defs><g id="Border"><path class="cls-1" d="M617.1,153.44V473.81h249V153.44ZM851.78,459H632.29V167.37H851.78Z" transform="translate(-515.64 -113.53)"/></g><g id="clip"><path class="cls-2" d="M767.38,141.43l-7.8-18.24c-1.33-5.51-7.25-9.66-14.35-9.66-6.93,0-12.73,4-14.25,9.25l-8,18.65H694.81v23.35h97.82V141.43Zm-21.62-8.09a5.85,5.85,0,1,1,5.85-5.85A5.85,5.85,0,0,1,745.76,133.34Z" transform="translate(-515.64 -113.53)"/></g><g id="Boxes"><rect class="cls-3" x="281.65" y="265.51" width="26.53" height="26.53"/><rect class="cls-3" x="281.65" y="214.21" width="26.53" height="26.53"/><rect class="cls-3" x="282.21" y="162.14" width="26.53" height="26.53"/><rect class="cls-3" x="282.21" y="110.84" width="26.53" height="26.53"/><line class="cls-3" x1="169.52" y1="110.84" x2="141.48" y2="110.84"/><line class="cls-3" x1="259.21" y1="110.84" x2="177.57" y2="110.84"/><line class="cls-3" x1="228.38" y1="120.22" x2="141.48" y2="120.22"/><line class="cls-3" x1="259.21" y1="120.22" x2="239.44" y2="120.22"/><line class="cls-3" x1="177.57" y1="128.38" x2="141.48" y2="128.38"/><line class="cls-3" x1="259.21" y1="128.38" x2="197.55" y2="128.38"/><line class="cls-3" x1="237.74" y1="137.93" x2="141.48" y2="137.93"/><line class="cls-3" x1="181.76" y1="266.27" x2="143.41" y2="266.27"/><line class="cls-3" x1="259.67" y1="266.27" x2="188.46" y2="266.27"/><line class="cls-3" x1="207.5" y1="275.65" x2="143.24" y2="275.65"/><line class="cls-3" x1="258.93" y1="275.65" x2="215.27" y2="275.65"/><line class="cls-3" x1="167.24" y1="283.81" x2="143.41" y2="283.81"/><line class="cls-3" x1="220.99" y1="283.81" x2="173.06" y2="283.81"/><line class="cls-3" x1="259.67" y1="283.81" x2="226.55" y2="283.81"/><line class="cls-3" x1="193.9" y1="293.36" x2="143.57" y2="293.36"/><line class="cls-3" x1="258.93" y1="293.36" x2="200.2" y2="293.36"/><line class="cls-3" x1="169.52" y1="215.57" x2="141.65" y2="215.57"/><line class="cls-3" x1="228.38" y1="215.57" x2="181.76" y2="215.57"/><line class="cls-3" x1="259.38" y1="215.57" x2="235.9" y2="215.57"/><line class="cls-3" x1="192.84" y1="224.95" x2="141.65" y2="224.95"/><line class="cls-3" x1="259.38" y1="224.95" x2="202.38" y2="224.95"/><path class="cls-3" d="M755.26,338.49" transform="translate(-515.64 -113.53)"/><path class="cls-3" d="M775,338.49" transform="translate(-515.64 -113.53)"/><line class="cls-3" x1="173.06" y1="233.11" x2="141.65" y2="233.11"/><line class="cls-3" x1="258.93" y1="233.11" x2="183.05" y2="233.11"/><path class="cls-3" d="M775,346.64" transform="translate(-515.64 -113.53)"/><line class="cls-3" x1="183.05" y1="242.66" x2="141.65" y2="242.66"/><line class="cls-3" x1="215.27" y1="242.66" x2="191.43" y2="242.66"/><line class="cls-3" x1="180.15" y1="166.1" x2="142.43" y2="166.1"/><line class="cls-3" x1="259.18" y1="166.1" x2="189.61" y2="166.1"/><line class="cls-3" x1="195.81" y1="175.49" x2="141.13" y2="175.49"/><line class="cls-3" x1="258.93" y1="175.49" x2="204.4" y2="175.49"/><line class="cls-3" x1="192.84" y1="183.64" x2="141.13" y2="183.64"/><line class="cls-3" x1="259.18" y1="183.64" x2="199.81" y2="183.64"/><line class="cls-3" x1="186.59" y1="193.19" x2="141.13" y2="193.19"/><path class="cls-3" d="M705.25,379.5" transform="translate(-515.64 -113.53)"/></g><g id="Tick"><polygon class="cls-2" points="278.13 276.95 293.46 288.1 319.36 254.05 316.01 251.49 292.45 281.85 280.36 273.16 278.13 276.95"/><polygon class="cls-2" points="279.24 225.6 293.46 236.65 319.36 202.6 316.01 200.03 292.45 230.4 281.48 221.8 279.24 225.6"/><polygon class="cls-2" points="278.68 173.27 294.02 184.42 319.92 150.37 316.57 147.8 293.01 178.17 280.92 169.47 278.68 173.27"/><polygon class="cls-2" points="279.8 121.91 294.02 132.97 319.92 98.92 316.57 96.35 293.01 126.71 282.03 118.12 279.8 121.91"/></g><g id="Shadow"><ellipse class="cls-1" cx="338.48" cy="442.98" rx="103.41" ry="11.4"/><ellipse class="cls-1" cx="113.81" cy="441.84" rx="113.81" ry="12.55"/></g><g id="Ball"><ellipse class="cls-2" cx="96.57" cy="388.75" rx="70.83" ry="61.77"/></g><g id="Lower_leg_2" data-name="Lower leg 2"><path class="cls-4" d="M848.32,466.48c1.75,17.85-12.85,85-12.85,85l-9.6-2.56c2.11-47.89,4.36-74.54,5.06-82.09a8.71,8.71,0,1,1,17.39-.35Z" transform="translate(-515.64 -113.53)"/><path d="M721.87,452.9a10.71,10.71,0,0,1-.1,1.61Z" transform="translate(-515.64 -113.53)"/><path d="M721.87,452.9l-.1,1.61L716.5,538a126.62,126.62,0,0,1-18.11-.41s-1.74-26.6.43-84.38c-.08-6,5-11,11.37-11.06S721.78,446.88,721.87,452.9Z" transform="translate(-515.64 -113.53)"/></g><g id="Upper_leg2" data-name="Upper leg2"><path class="cls-4" d="M869.24,379.9s-7.08,42.94-20.84,85.5c-.38,1.16-.76,2.33-1.15,3.49a8.77,8.77,0,0,1-16.35-4.42A8.25,8.25,0,0,1,831,463v0c.2-1.69,6.45-56,10.84-87.7.92-6.59,10.63-5.21,10.63-5.21,16.74.13,16,4.81,16,4.81A15.2,15.2,0,0,1,869.24,379.9Z" transform="translate(-515.64 -113.53)"/><path d="M714.5,442.69l-1.32-.49A12.29,12.29,0,0,1,714.5,442.69Z" transform="translate(-515.64 -113.53)"/><path d="M622,451.34c-.36-.09-.72-.19-1.07-.3Z" transform="translate(-515.64 -113.53)"/><path d="M705.36,463.86l0,0c-70.87-11.71-77.4-11-83.17-12.5l-.21-.05-1.07-.3-.2-.07c-.26-.08-.51-.18-.76-.28h0a16.62,16.62,0,0,1-10.48-16.58c.61-9.15,2.2-17.54,17.69-15.45.31,0,.63,0,.94.09v0c32.76,4.52,75.34,19.86,85.11,23.48h0l1.32.49h0l.1.05A11.32,11.32,0,0,1,721.32,454C720.15,466.17,705.36,463.86,705.36,463.86Z" transform="translate(-515.64 -113.53)"/><path d="M619.93,450.69c.25.1.5.2.76.28A3.72,3.72,0,0,1,619.93,450.69Z" transform="translate(-515.64 -113.53)"/><path d="M714.63,442.74h0l-.1-.05Z" transform="translate(-515.64 -113.53)"/></g><g id="Lower_leg" data-name="Lower leg"><path class="cls-4" d="M908.76,545.68,899.22,547c-15.31-41.63-25.6-70-28.3-77.43a9,9,0,0,1-.56-1.36,8.77,8.77,0,0,1,16.33-6.33,0,0,0,0,1,0,0C898.5,485.7,897.77,486.35,908.76,545.68Z" transform="translate(-515.64 -113.53)"/><path class="cls-5" d="M714.6,462.75a11.28,11.28,0,0,1-8.78,11c-31.1,9-81.16,21-81.16,21l-5.19-17.35c52.2-18.51,78.85-25.06,80.47-25.45h0a11.31,11.31,0,0,1,14.63,10.78Z" transform="translate(-515.64 -113.53)"/><path class="cls-5" d="M699.87,451.83" transform="translate(-515.64 -113.53)"/></g><g id="Upper_leg" data-name="Upper leg"><path class="cls-4" d="M881,377.27l.14,0s4.08,48.15,6.8,88.3l.09,1.33v0a8.77,8.77,0,0,1-16.65,3.76s0,0,0,0v0c-.06-.14-.26-.66-.58-1.58h0c-2.4-6.7-9.28-30.81-16.71-87.45h0c0-.19-.13-4.88-.14-5.08-.49-7.52,5.53-6.76,13.06-7.25C873.86,368.82,879.62,370.74,881,377.27Z" transform="translate(-515.64 -113.53)"/><path class="cls-4" d="M881.22,370A40.44,40.44,0,0,1,886,397a53.37,53.37,0,0,0-2,17.38L874.65,416l-10.79-46.34C868.4,368.27,881.22,370,881.22,370Z" transform="translate(-515.64 -113.53)"/><path class="cls-5" d="M713.43,459.19a11.28,11.28,0,0,1-11.29,11.28,11.61,11.61,0,0,1-2.22-.21c-73-11.34-96.84-17.9-96.84-17.9v-.07a18.66,18.66,0,0,1-12.84-17.21c0-9.26.51-16.75,17.38-15.64a19.93,19.93,0,0,1,2.92.41h0c17.93,2.78,87.3,26,94.83,28.52h0l.65.22A11.3,11.3,0,0,1,713.43,459.19Z" transform="translate(-515.64 -113.53)"/></g><g id="Neck"><path class="cls-4" d="M842.7,263.27l.62,1.64A7,7,0,0,1,842.7,263.27Z" transform="translate(-515.64 -113.53)"/><path class="cls-6" d="M860.73,259.47l-.44-1.16A6.76,6.76,0,0,1,860.73,259.47Z" transform="translate(-515.64 -113.53)"/><path class="cls-4" d="M866.78,276.7a7.38,7.38,0,0,1-14.22,2.79l-.16-.44-5.32-14.14-.62-1.64a7.25,7.25,0,0,1-.21-1.76,7.39,7.39,0,0,1,14-3.23v0l.44,1.16,5.4,14.19A7.37,7.37,0,0,1,866.78,276.7Z" transform="translate(-515.64 -113.53)"/><path class="cls-4" d="M622.22,319.44a6.1,6.1,0,0,1-.38,1.14Z" transform="translate(-515.64 -113.53)"/><path class="cls-4" d="M624.09,316.59a6.91,6.91,0,0,1,.09,1.69l-.18,1.19-1.82,12.26-.07.45v0h0a7.16,7.16,0,0,1-14.1-.1,7.07,7.07,0,0,1,.22-3.34l1.66-11.47a6,6,0,0,1,.14-1v0h0a7.16,7.16,0,0,1,14.05.28Z" transform="translate(-515.64 -113.53)"/></g><g id="Upper_arm2" data-name="Upper arm2"><circle class="cls-7" cx="375.82" cy="216.72" r="6.62"/><path class="cls-8" d="M876.37,292.72a7.12,7.12,0,0,1-.69,1Z" transform="translate(-515.64 -113.53)"/><path class="cls-8" d="M877.46,288.83a8.41,8.41,0,0,1-1.09,3.88h0l-.69,1c-24,36.17-33.76,45.92-33.76,45.92l-.12-.12a6.81,6.81,0,0,1-4.78,1.7,6.9,6.9,0,0,1-6.64-7.15,6.8,6.8,0,0,1,1.63-4.19l0,0C850.82,301,860.51,285.75,861.65,284a1.92,1.92,0,0,0,.11-.18,8.57,8.57,0,0,1,15.7,5.06Z" transform="translate(-515.64 -113.53)"/><path class="cls-8" d="M650.76,398.1a5.6,5.6,0,0,1,.26.68,8.41,8.41,0,0,1-15.74,5.89h0s-8.24-14.25-22.12-48.5l.07,0a11.37,11.37,0,0,1-.48-1.19,9.93,9.93,0,0,1,18.39-7.4l.07,0s6.32,12.48,19.61,50.55Z" transform="translate(-515.64 -113.53)"/></g><g id="Hand2"><path class="cls-4" d="M806.35,367.29c-6.76,4.63-7.38,8.09-7.38,8.09-3.47,5.31-6.93,7.26-6.93,7.26-2.42,1,.1-2.83.1-2.83,1.82-3.58-.74-4.43-.74-4.43-2.52-.91-8.22.05-8.22.05a29.58,29.58,0,0,1-5.48,0c-1.36-.74.13-1.91.13-1.91a70.77,70.77,0,0,1,7.76-4.56,35.42,35.42,0,0,1,8.09-2.07c3.53-1,8.1-4.34,8.1-4.34Z" transform="translate(-515.64 -113.53)"/><path class="cls-4" d="M718.54,449.91s-.49,1.3-2.57-.44a56.64,56.64,0,0,0-5.56-7,22.08,22.08,0,0,0-5.93-4.13s-2-.47-.4,2.11a52.43,52.43,0,0,1,2.93,4.91s0,1.95-2.81-.71c0,0-7.61-7.6-9.44-10.85.11.16-4.44-3.38-7-5.64,0,0-.12-5.74,3.29-4.61a53.21,53.21,0,0,1,7.49,4.55h0a5.5,5.5,0,0,1,1,.49s11.28,7.45,12.59,9.1C712.18,437.65,718.44,448.52,718.54,449.91Z" transform="translate(-515.64 -113.53)"/></g><g id="Lower_back_arm" data-name="Lower back arm"><g id="L2"><path class="cls-8" d="M848.77,333.08c-.18.18-.36.36-.55.52h0C830,351.13,802.9,370,802.9,370l-5.41-5.17c14-15.46,41.38-42.13,41.38-42.13l0,0a7.18,7.18,0,0,1,9.88,10.39Z" transform="translate(-515.64 -113.53)"/></g><path class="cls-8" d="M687.85,433.08c-15.91-6.78-40.56-19.73-47.74-23.54l-2-1.08a8.41,8.41,0,0,1,9.16-14.09l.52.33c12.12,7.74,45.55,30,45.55,30Z" transform="translate(-515.64 -113.53)"/></g><g id="Upper_body" data-name="Upper body"><path class="cls-8" d="M880.37,323.63a110.36,110.36,0,0,0-.32,27.41h0c.08.76.18,1.52.29,2.29v0a1.09,1.09,0,0,1,0,.18c0,.25,0,.51,0,.77,0,10.15-9.08,18.37-20.27,18.37s-18.78-8.31-18.78-18.46c0-.26,0-.51,0-.77h0s1.95-20.51-1.75-35.88c0,0-2.81-7.84-.4-15.08,0,0,2.81-7,11-16.39A26.08,26.08,0,0,1,871,277.72c7.81,1.44,9.69,12.21,9.69,12.21S882.73,304.07,880.37,323.63Z" transform="translate(-515.64 -113.53)"/><path class="cls-8" d="M594.12,426.28a121.83,121.83,0,0,0,43.79-2.44c3.11-2.43.41-45.77.41-45.77-.81-29.72-11.35-43.56-11.35-43.56-10.68-10.15-25.4-3.39-25.4-3.39-9.73,3.37-10.71,21.88-10.71,21.88-3.75,26.08,0,66.44,0,66.44C592,426.77,594.12,426.28,594.12,426.28Z" transform="translate(-515.64 -113.53)"/></g><g id="Lower_body" data-name="Lower body"><path class="cls-9" d="M873.53,271.75" transform="translate(-515.64 -113.53)"/><path class="cls-8" d="M878.93,374.38s-5.51,2-19.44,1.76c0,0-19,0-18.5-6.14.17-2.25.28-10.71.32-15.4,0-1.69,0-2.89,0-3.13h0a0,0,0,0,1,0,0,18.38,18.38,0,0,1,20.38-16.84c9.94.85,17.6,8.34,18.39,17.35,0,.06,0,.13,0,.2s0,.1,0,.16v0c0,.08,0,.16,0,.24s0,0,0,0C880.42,356.27,881.57,374,878.93,374.38Z" transform="translate(-515.64 -113.53)"/></g><g id="Shoe_copy" data-name="Shoe copy"><path class="cls-8" d="M824.43,548.84c-10,4.94-18.15,8.36-18.15,8.36-3.94,1.53-4,4.06-4,4.06-.27,1.07.21,1.18.21,1.18,3,1,36.28-1.54,36.28-1.54,1-.36.57-1.55.57-1.55-1.27-7.48-2-8.66-2-8.66-.47-1.07-2.12-.12-2.12-.12a11.41,11.41,0,0,1-8-1.64C825.42,548.1,824.43,548.84,824.43,548.84Z" transform="translate(-515.64 -113.53)"/><path class="cls-8" d="M700,540.57c-2.91,3.4-4.13,11.32-2.93,11.65,1.78,1.46,36.9.41,36.9.41,4-.87,1.69-4.22,1.69-4.22-1.65-2.27-14.27-5.6-14.27-5.6a86.46,86.46,0,0,1-8.29-3.66c-2.44-1-6.47,1-6.47,1A18.72,18.72,0,0,1,700,540.57Z" transform="translate(-515.64 -113.53)"/></g><g id="Shoe"><path class="cls-8" d="M896.64,544.72c-8.07,7.69-14.83,13.39-14.83,13.39-3.31,2.63-2.58,5-2.58,5,.07,1.1.56,1.07.56,1.07,3.11,0,34.17-12.29,34.17-12.29.83-.62.08-1.64.08-1.64-3.43-6.76-4.46-7.68-4.46-7.68-.77-.88-2.06.52-2.06.52a11.38,11.38,0,0,1-8.09.8C897.37,543.72,896.64,544.72,896.64,544.72Z" transform="translate(-515.64 -113.53)"/><path class="cls-8" d="M608.15,486.71c4.07,10.61,18.14,32.83,18.14,32.83,2.09,2.9,4.36-1.17,4.36-1.17.68-2.06-1.33-10.13-1.33-10.13-1.29-7.68-1.9-13.46-1.9-13.46-.22-1.28-2.95-4.3-2.95-4.3a13.2,13.2,0,0,1-4.29-6.68c-.72-1-3.37-.6-3.37-.6C609.11,485,608.15,486.71,608.15,486.71Z" transform="translate(-515.64 -113.53)"/></g><g id="Hand1_copy_2" data-name="Hand1 copy 2"><path class="cls-4" d="M911.66,412.78s-2.1,0-4-3.09c0,0-3.95-7.89-5-8.15,0,0-.16,5.31-1.15,7.74,0,0-.48,1-.88-.25,0,0-.16-1.22-.36-7.7,0,0-.25-6.76,1.4-9a13.43,13.43,0,0,0,.75,1.59l5.15-1.33c0-.59-.12-1.14-.18-1.65a4.64,4.64,0,0,1,.8.92s1,1,1.86,4.69c0,0,1.52,4.77,3.88,12.88C913.92,409.39,914.16,413.14,911.66,412.78Z" transform="translate(-515.64 -113.53)"/><path class="cls-4" d="M901.71,392.22l-.05.07a23.35,23.35,0,0,1-1.41-5.38s2.89-3.93,6-.86a18.85,18.85,0,0,1,1.17,4.85C904.84,388.71,901.71,392.22,901.71,392.22Z" transform="translate(-515.64 -113.53)"/><path class="cls-4" d="M907.56,392.55l-5.15,1.33a13.43,13.43,0,0,1-.75-1.59l.05-.07s3.13-3.51,5.67-1.32C907.44,391.41,907.51,392,907.56,392.55Z" transform="translate(-515.64 -113.53)"/><path class="cls-4" d="M907.56,392.55l-5.15,1.33a13.43,13.43,0,0,1-.75-1.59l.05-.07s3.13-3.51,5.67-1.32C907.44,391.41,907.51,392,907.56,392.55Z" transform="translate(-515.64 -113.53)"/><path class="cls-4" d="M568.56,451.19" transform="translate(-515.64 -113.53)"/><path class="cls-4" d="M575.56,455a12.23,12.23,0,0,1-2.12,4,14.15,14.15,0,0,1-1.79,9.19c-2.45,3.78-5.27,4.49-5.27,4.49-2.21.77,2.07-4.3,2.07-4.3s2.57-4-.37-1.1A36.41,36.41,0,0,1,559.2,473s-8.86,2.76-7.8-.72c0,0,.35-1.78,2.81-4.15,0,0,9.06-8.28,10.73-10.64a8.91,8.91,0,0,1,2.32-2q.29-2.07.93-6.2s.75-2.3,5.61-.41C573.8,448.86,577,449.81,575.56,455Z" transform="translate(-515.64 -113.53)"/></g><g id="Upper_arm" data-name="Upper arm"><path class="cls-8" d="M896.27,337.47a7.2,7.2,0,0,1-10-1.56c-.16-.23-.31-.46-.44-.69h0l0,0-.16-.31c-1.85-3.47-16.83-31.71-23.43-46.72a8.44,8.44,0,0,1,14.33-8.83,9,9,0,0,1,.56.86l0,0s6.55,11.27,21.17,48h0A7.18,7.18,0,0,1,896.27,337.47Z" transform="translate(-515.64 -113.53)"/><polygon class="cls-8" points="370.14 221.69 370.14 221.69 370.14 221.68 370.14 221.69"/><path class="cls-10" d="M591.4,345.29a7.84,7.84,0,0,1,.68-1S591.85,344.65,591.4,345.29Z" transform="translate(-515.64 -113.53)"/><path class="cls-8" d="M584.93,397a8.92,8.92,0,0,1-15.61-8.6l0,0c13.75-30.11,22.29-46.41,24.54-50.62h0l.59-1.09a10.44,10.44,0,0,1,18,10.54h0c-17.69,33.25-26.57,48.14-27.49,49.67Z" transform="translate(-515.64 -113.53)"/></g><g id="Lower_arm" data-name="Lower arm"><path class="cls-8" d="M906.9,388l-7.22,2c-6-20-14.76-57.17-14.76-57.17h0a7.18,7.18,0,0,1,14-3.1,6.74,6.74,0,0,1,.17.75C904.73,355.06,906.9,388,906.9,388Z" transform="translate(-515.64 -113.53)"/><path class="cls-8" d="M566.35,452.32c-.08-18.24,1.19-49.57,1.48-56.36,0-.5,0-.86,0-1.08h0l0-.24a4.89,4.89,0,0,1,.09-.53,8.84,8.84,0,0,1,17.41,3h0c-3.78,27.68-8.41,56.57-8.41,56.57A49.4,49.4,0,0,1,566.35,452.32Z" transform="translate(-515.64 -113.53)"/></g><g id="Head"><path class="cls-4" d="M853.36,226.68c-14.84-1.06-17.83,7.86-17.83,7.86-1.32,3.34-.51,9.83-.51,9.83.25,2.58-2.79,9-2.79,9a.9.9,0,0,0,.61,1.32,7.57,7.57,0,0,0,2.38.81,29.9,29.9,0,0,1,.66,4.46c.61,5.78,1.82,6.94,1.82,6.94,1.88.81,10.59,0,10.59,0,9.33-1,13.08-3,13.08-3,5.06-3.29,7.24-9.63,7.24-9.63,3-8.51,0-18.39,0-18.39C865.77,227.54,853.36,226.68,853.36,226.68Z" transform="translate(-515.64 -113.53)"/><path class="cls-4" d="M614.43,283.29c15-3,20.27,5.78,20.27,5.78,4,7.19,3.65,9.12,3.65,9.12,1.31,3.24,3.14,10.64,3.14,10.64,0,.55-2.74.91-2.74.91a78.27,78.27,0,0,1-1,11.25c-1.12,3.54-6,2.43-6,2.43-11.35-1.52-14.79-3.55-14.79-3.55-11.15-6.28-10-22.09-10-22.09C608.05,284.71,614.43,283.29,614.43,283.29Z" transform="translate(-515.64 -113.53)"/></g><g id="Collar"><path class="cls-11" d="M866.79,274.59c-11,1-16.53,5-16.53,5a23.25,23.25,0,0,0-.51,6.4c4.51.32,9.2-4.14,9.2-4.14,3.92-3.23,10.1-4.71,10.1-4.71l-.69-2.51Z" transform="translate(-515.64 -113.53)"/><path class="cls-12" d="M605.2,326.93c11.95,0,18.74,3.55,18.74,3.55l1.12,2.93c-8.31-2.32-20.29-4.12-20.29-4.12Z" transform="translate(-515.64 -113.53)"/></g><g id="Skirt"><path d="M841.42,369c-4,23-13.13,91.57-13.13,91.57,40.2,8.79,63.12.48,63.12.48-3.76-31-5.13-46.13-5.13-46.13a55.54,55.54,0,0,1,2.26-20.63c4.05-15.25-7.38-26.9-7.38-26.9C862.43,373.32,841.42,369,841.42,369Z" transform="translate(-515.64 -113.53)"/></g><g id="Hair1"><path d="M862.51,262c2.34.3,3.4-.71,5-5.56,0,0,7.2-19.66-5.47-29a32,32,0,0,0-28.78.71s-3.34,3.24,3.75,8.51a25.36,25.36,0,0,0,9.64,3.35c2.33.4,3.56,3.94,3.56,3.94,1.4,8.31,4.14,11.15,4.14,11.15a34.72,34.72,0,0,1,3.14,3.19A8.93,8.93,0,0,0,862.51,262Z" transform="translate(-515.64 -113.53)"/><path d="M866.79,253.53c10.4-8.1,11.35,3.65,11.35,3.65,0,10.81-7.73,11.08-7.73,11.08-6.86,0-6-9.59-6-9.59A13.21,13.21,0,0,1,866.79,253.53Z" transform="translate(-515.64 -113.53)"/><path d="M612,276.91l.51,0c13.52.7,20.53,5.22,20.53,5.22,5.88,4,0,7.08,0,7.08a41.42,41.42,0,0,1-11.65,1.51c-2.23.05.2,10.37.2,10.37.45,3.19-.78,3.12-.78,3.12-1.82.5-3.15-2.88-3.15-2.88-2.11-2.56-3.06-.87-3.06-.87-2.41,2.24,0,7.36,0,7.36a5.49,5.49,0,0,1-2,4.78C608,314.68,600.73,304,600.73,304c-6.56-12.19,3.18-23.11,3.18-23.11a14.81,14.81,0,0,1,8.43-3.92" transform="translate(-515.64 -113.53)"/></g></svg>